<?xml version="1.0" encoding="utf-8"?>
<!-- Generator: Adobe Illustrator 15.0.2, SVG Export Plug-In . SVG Version: 6.00 Build 0)  -->
<!DOCTYPE svg PUBLIC "-//W3C//DTD SVG 1.1//EN" "http://www.w3.org/Graphics/SVG/1.1/DTD/svg11.dtd">
<svg version="1.1" id="Layer_1" xmlns="http://www.w3.org/2000/svg" xmlns:xlink="http://www.w3.org/1999/xlink" x="0px" y="0px"
	 width="864px" height="432px" viewBox="0 0 864 432" enable-background="new 0 0 864 432" xml:space="preserve">
<g>
	<g>
		<rect y="300.051" fill="#124152" width="70.163" height="135.223"/>
		<rect x="65.034" y="337.023" fill="#124152" width="72.65" height="98.779"/>
		<rect x="134.265" y="312.548" fill="#124152" width="41.881" height="123.255"/>
	</g>
	<g>
		<rect x="172.726" y="248.404" fill="#124152" width="73.582" height="186.517"/>
		<rect x="240.248" y="335.435" fill="#124152" width="73.582" height="99.486"/>
		<rect x="308.624" y="311.665" fill="#124152" width="43.667" height="123.256"/>
	</g>
	<g>
		<rect x="522.299" y="298.99" fill="#124152" width="76.301" height="135.223"/>
	</g>
	<g>
		<rect x="347.085" y="266.735" fill="#124152" width="75.369" height="166.771"/>
		<rect x="417.17" y="326.024" fill="#124152" width="72.804" height="107.481"/>
		<rect x="484.692" y="365.895" fill="#124152" width="43.745" height="67.611"/>
	</g>
	<g>
		<rect x="768.082" y="335.435" fill="#124152" width="61.109" height="100.368"/>
		<rect x="825.718" y="310.957" fill="#124152" width="38.282" height="125.649"/>
	</g>
</g>
<rect x="594.094" y="260.613" fill="#124152" width="52.991" height="171.387"/>
<rect x="642.812" y="284.074" fill="#124152" width="70.086" height="147.926"/>
<rect x="708.624" y="317.812" fill="#124152" width="64.957" height="114.188"/>
<rect x="86.829" y="348.126" fill="#FFFFFF" width="29.06" height="39.211"/>
<rect x="612.47" y="268.239" fill="#FFFFFF" width="16.239" height="15.835"/>
<rect x="662.897" y="296.444" fill="#FFFFFF" width="34.188" height="21.367"/>
<rect x="16.316" y="309.094" fill="#FFFFFF" width="32.479" height="21.71"/>
<rect x="145.375" y="324.298" fill="#FFFFFF" width="15.385" height="10.855"/>
<rect x="191.103" y="266.735" fill="#FFFFFF" width="28.632" height="27.213"/>
<rect x="318.88" y="329.646" fill="#FFFFFF" width="18.803" height="43.985"/>
<rect x="372.046" y="284.074" fill="#FFFFFF" width="30.652" height="23.64"/>
<rect x="443.666" y="341.662" fill="#FFFFFF" width="31.352" height="19.953"/>
<rect x="537.684" y="316.622" fill="#FFFFFF" width="34.809" height="18.804"/>
<rect x="724.436" y="328.021" fill="#FFFFFF" width="30.342" height="22.1"/>
<rect x="798.637" y="344.296" fill="#FFFFFF" width="17.491" height="25.122"/>
<rect x="264.179" y="346.657" fill="#FFFFFF" width="27.351" height="22.761"/>
<rect x="838.538" y="320.597" fill="#FFFFFF" width="18.804" height="10.855"/>
</svg>
